<mxfile host="app.diagrams.net" agent="Mozilla/5.0 (Windows NT 10.0; Win64; x64) AppleWebKit/537.36 (KHTML, like Gecko) Chrome/127.0.0.0 Safari/537.36" version="24.7.7">
  <diagram name="P치gina-1" id="to-xYuP3ZVUmArwBONqU">
    <mxGraphModel dx="1434" dy="772" grid="1" gridSize="10" guides="1" tooltips="1" connect="1" arrows="1" fold="1" page="1" pageScale="1" pageWidth="827" pageHeight="1169" math="0" shadow="0">
      <root>
        <mxCell id="0" />
        <mxCell id="1" parent="0" />
        <mxCell id="EVf5NrexbO07jNeD7YWv-1" value="reprogramaci칩n reservas&amp;nbsp;" style="ellipse;whiteSpace=wrap;html=1;" vertex="1" parent="1">
          <mxGeometry x="130" y="435" width="120" height="80" as="geometry" />
        </mxCell>
        <mxCell id="EVf5NrexbO07jNeD7YWv-2" value="ingresar datos de reprogramaci칩n de reserva" style="ellipse;whiteSpace=wrap;html=1;" vertex="1" parent="1">
          <mxGeometry x="280" y="355" width="120" height="80" as="geometry" />
        </mxCell>
        <mxCell id="EVf5NrexbO07jNeD7YWv-3" value="Mostrar resumen de la reserva&amp;nbsp;" style="ellipse;whiteSpace=wrap;html=1;" vertex="1" parent="1">
          <mxGeometry x="520" y="355" width="120" height="80" as="geometry" />
        </mxCell>
        <mxCell id="EVf5NrexbO07jNeD7YWv-4" value="extend" style="endArrow=classic;html=1;rounded=0;dashed=1;strokeColor=default;align=center;verticalAlign=middle;fontFamily=Helvetica;fontSize=11;fontColor=default;labelBackgroundColor=default;exitX=1;exitY=0.5;exitDx=0;exitDy=0;entryX=0;entryY=0.5;entryDx=0;entryDy=0;" edge="1" parent="1" source="EVf5NrexbO07jNeD7YWv-2" target="EVf5NrexbO07jNeD7YWv-3">
          <mxGeometry width="50" height="50" relative="1" as="geometry">
            <mxPoint x="160" y="530" as="sourcePoint" />
            <mxPoint x="324" y="586" as="targetPoint" />
          </mxGeometry>
        </mxCell>
        <mxCell id="EVf5NrexbO07jNeD7YWv-5" value="" style="endArrow=none;html=1;rounded=0;entryX=0;entryY=0.5;entryDx=0;entryDy=0;" edge="1" parent="1" target="EVf5NrexbO07jNeD7YWv-1">
          <mxGeometry width="50" height="50" relative="1" as="geometry">
            <mxPoint x="70" y="475" as="sourcePoint" />
            <mxPoint x="130" y="475" as="targetPoint" />
          </mxGeometry>
        </mxCell>
        <mxCell id="EVf5NrexbO07jNeD7YWv-6" value="Actor" style="shape=umlActor;verticalLabelPosition=bottom;verticalAlign=top;html=1;outlineConnect=0;" vertex="1" parent="1">
          <mxGeometry x="30" y="445" width="30" height="60" as="geometry" />
        </mxCell>
        <mxCell id="EVf5NrexbO07jNeD7YWv-7" value="guardar reserva en el sistema" style="ellipse;whiteSpace=wrap;html=1;" vertex="1" parent="1">
          <mxGeometry x="620" y="465" width="120" height="80" as="geometry" />
        </mxCell>
        <mxCell id="EVf5NrexbO07jNeD7YWv-8" value="enviar notificaci칩n al email" style="ellipse;whiteSpace=wrap;html=1;" vertex="1" parent="1">
          <mxGeometry x="460" y="515" width="120" height="80" as="geometry" />
        </mxCell>
        <mxCell id="EVf5NrexbO07jNeD7YWv-9" value="validar disponibilidad&amp;nbsp;" style="ellipse;whiteSpace=wrap;html=1;" vertex="1" parent="1">
          <mxGeometry x="280" y="505" width="120" height="80" as="geometry" />
        </mxCell>
        <mxCell id="EVf5NrexbO07jNeD7YWv-10" value="Actor" style="shape=umlActor;verticalLabelPosition=bottom;verticalAlign=top;html=1;outlineConnect=0;" vertex="1" parent="1">
          <mxGeometry x="760" y="465" width="30" height="60" as="geometry" />
        </mxCell>
        <mxCell id="EVf5NrexbO07jNeD7YWv-11" value="extend" style="endArrow=classic;html=1;rounded=0;dashed=1;strokeColor=default;align=center;verticalAlign=middle;fontFamily=Helvetica;fontSize=11;fontColor=default;labelBackgroundColor=default;exitX=1;exitY=0;exitDx=0;exitDy=0;entryX=0.075;entryY=0.713;entryDx=0;entryDy=0;entryPerimeter=0;" edge="1" parent="1" source="EVf5NrexbO07jNeD7YWv-1" target="EVf5NrexbO07jNeD7YWv-2">
          <mxGeometry width="50" height="50" relative="1" as="geometry">
            <mxPoint x="230" y="444" as="sourcePoint" />
            <mxPoint x="350" y="444" as="targetPoint" />
          </mxGeometry>
        </mxCell>
        <mxCell id="EVf5NrexbO07jNeD7YWv-12" value="include" style="endArrow=classic;html=1;rounded=0;dashed=1;strokeColor=default;align=center;verticalAlign=middle;fontFamily=Helvetica;fontSize=11;fontColor=default;labelBackgroundColor=default;exitX=0.967;exitY=0.675;exitDx=0;exitDy=0;exitPerimeter=0;entryX=0.058;entryY=0.288;entryDx=0;entryDy=0;entryPerimeter=0;" edge="1" parent="1" target="EVf5NrexbO07jNeD7YWv-9">
          <mxGeometry width="50" height="50" relative="1" as="geometry">
            <mxPoint x="230" y="505" as="sourcePoint" />
            <mxPoint x="314" y="565" as="targetPoint" />
          </mxGeometry>
        </mxCell>
        <mxCell id="EVf5NrexbO07jNeD7YWv-13" value="include" style="endArrow=classic;html=1;rounded=0;dashed=1;strokeColor=default;align=center;verticalAlign=middle;fontFamily=Helvetica;fontSize=11;fontColor=default;labelBackgroundColor=default;exitX=0.417;exitY=1.013;exitDx=0;exitDy=0;exitPerimeter=0;entryX=0.5;entryY=0;entryDx=0;entryDy=0;" edge="1" parent="1" source="EVf5NrexbO07jNeD7YWv-3" target="EVf5NrexbO07jNeD7YWv-8">
          <mxGeometry width="50" height="50" relative="1" as="geometry">
            <mxPoint x="570" y="435" as="sourcePoint" />
            <mxPoint x="654" y="495" as="targetPoint" />
          </mxGeometry>
        </mxCell>
        <mxCell id="EVf5NrexbO07jNeD7YWv-14" value="include" style="endArrow=classic;html=1;rounded=0;dashed=1;strokeColor=default;align=center;verticalAlign=middle;fontFamily=Helvetica;fontSize=11;fontColor=default;labelBackgroundColor=default;exitX=0.717;exitY=0.95;exitDx=0;exitDy=0;exitPerimeter=0;entryX=0.325;entryY=0.075;entryDx=0;entryDy=0;entryPerimeter=0;" edge="1" parent="1" source="EVf5NrexbO07jNeD7YWv-3" target="EVf5NrexbO07jNeD7YWv-7">
          <mxGeometry width="50" height="50" relative="1" as="geometry">
            <mxPoint x="600" y="420" as="sourcePoint" />
            <mxPoint x="650" y="460" as="targetPoint" />
          </mxGeometry>
        </mxCell>
        <mxCell id="EVf5NrexbO07jNeD7YWv-15" value="" style="endArrow=none;html=1;rounded=0;entryX=0.5;entryY=0.5;entryDx=0;entryDy=0;entryPerimeter=0;exitX=1.008;exitY=0.413;exitDx=0;exitDy=0;exitPerimeter=0;" edge="1" parent="1" source="EVf5NrexbO07jNeD7YWv-7" target="EVf5NrexbO07jNeD7YWv-10">
          <mxGeometry width="50" height="50" relative="1" as="geometry">
            <mxPoint x="390" y="490" as="sourcePoint" />
            <mxPoint x="440" y="440" as="targetPoint" />
          </mxGeometry>
        </mxCell>
      </root>
    </mxGraphModel>
  </diagram>
</mxfile>
